<?xml version="1.0" standalone="no"?><!DOCTYPE svg PUBLIC "-//W3C//DTD SVG 1.1//EN" "http://www.w3.org/Graphics/SVG/1.1/DTD/svg11.dtd"><svg t="1724661018905" class="icon" viewBox="0 0 1160 1024" version="1.1" xmlns="http://www.w3.org/2000/svg" p-id="8478" xmlns:xlink="http://www.w3.org/1999/xlink" width="226.5625" height="200"><path d="M564.857515 19.592533C247.963648 23.3472-7.217152 148.616533 0.155648 280.3712l0.8192 17.544533 0.682667 19.114667c2.389333 67.584 10.922667 105.813333 40.96 136.942933 30.037333 31.061333 75.912533 42.734933 139.6736 34.816 134.621867-16.7936 173.056-61.986133 168.3456-161.1776-0.273067-7.168-1.911467-32.1536-2.048-34.542933-1.365333-24.1664 86.4256-44.578133 226.645333-46.216533 141.9264-1.6384 232.789333 16.930133 234.2912 43.2128l0.068267 0.068266c0.136533 2.321067 1.365333 27.4432 1.911466 34.679467 0.8192 13.448533 2.048 24.234667 3.8912 34.474667 13.1072 72.362667 63.351467 108.270933 179.950934 119.944533 72.157867 7.168 120.149333-9.898667 145.408-50.722133 18.8416-30.5152 22.254933-65.604267 18.363733-120.900267-0.273067-3.549867-2.8672-35.157333-3.413333-43.4176C1148.469248 134.144 881.068715 15.837867 564.925781 19.592533zM698.455381 675.498667l-98.986666 101.376-98.986667-101.376a42.461867 42.461867 0 0 0-60.552533 0.546133 44.919467 44.919467 0 0 0-0.477867 61.986133l98.986667 101.307734-98.986667 101.376a44.2368 44.2368 0 0 0-12.288 33.041066c0.682667 17.408 11.4688 32.768 27.306667 39.1168a42.461867 42.461867 0 0 0 46.011733-9.6256l98.986667-101.376 98.986666 101.376a42.461867 42.461867 0 0 0 61.098667 0 44.919467 44.919467 0 0 0 0-62.532266l-98.986667-101.376 98.986667-101.307734a44.919467 44.919467 0 0 0 0-62.532266 42.461867 42.461867 0 0 0-61.098667 0z" fill="#FF490F" p-id="8479"></path></svg>